<?xml version="1.0" encoding="UTF-8"?>
<svg xmlns="http://www.w3.org/2000/svg" xmlns:xlink="http://www.w3.org/1999/xlink" width="18px" height="18px" viewBox="0 0 18 18" version="1.1">
<g id="surface1">
<path style=" stroke:none;fill-rule:nonzero;fill:rgb(0%,0%,0%);fill-opacity:1;" d="M 8.492188 0.0546875 C 8.101562 0.140625 7.847656 0.28125 7.089844 0.820312 C 6.699219 1.097656 6.316406 1.367188 6.242188 1.421875 L 6.105469 1.511719 L 4.625 1.511719 C 3.15625 1.511719 3.148438 1.511719 3.007812 1.59375 C 2.929688 1.636719 2.832031 1.734375 2.789062 1.8125 C 2.710938 1.949219 2.707031 1.980469 2.707031 2.9375 L 2.707031 3.925781 L 1.398438 4.855469 C 0.679688 5.363281 0.0703125 5.804688 0.046875 5.835938 C -0.0195312 5.921875 -0.015625 17.191406 0.0507812 17.378906 C 0.128906 17.597656 0.273438 17.773438 0.46875 17.878906 L 0.648438 17.984375 L 17.351562 17.984375 L 17.53125 17.878906 C 17.726562 17.773438 17.871094 17.597656 17.949219 17.378906 C 18.015625 17.191406 18.019531 5.921875 17.953125 5.832031 C 17.929688 5.804688 17.320312 5.359375 16.605469 4.851562 L 15.292969 3.925781 L 15.292969 2.9375 C 15.292969 1.980469 15.289062 1.949219 15.210938 1.8125 C 15.167969 1.734375 15.070312 1.636719 14.992188 1.59375 C 14.851562 1.511719 14.84375 1.511719 13.375 1.511719 L 11.894531 1.511719 L 11.632812 1.328125 C 11.488281 1.230469 11.109375 0.960938 10.785156 0.730469 C 10.460938 0.503906 10.097656 0.265625 9.976562 0.210938 C 9.53125 0.0117188 8.980469 -0.046875 8.492188 0.0546875 Z M 9.578125 0.703125 C 9.695312 0.742188 9.859375 0.820312 9.9375 0.871094 C 10.21875 1.054688 10.753906 1.441406 10.773438 1.476562 C 10.789062 1.5 10.175781 1.511719 9 1.511719 C 7.90625 1.511719 7.210938 1.496094 7.226562 1.480469 C 7.242188 1.445312 7.652344 1.144531 8.011719 0.90625 C 8.1875 0.789062 8.492188 0.664062 8.71875 0.617188 C 8.894531 0.582031 9.371094 0.632812 9.578125 0.703125 Z M 14.695312 5.109375 L 14.695312 8.105469 L 12.601562 9.847656 C 11.445312 10.804688 10.410156 11.664062 10.296875 11.757812 C 9.988281 12.027344 9.75 12.15625 9.421875 12.238281 C 8.800781 12.394531 8.25 12.238281 7.671875 11.734375 C 7.578125 11.652344 6.554688 10.800781 5.398438 9.84375 L 3.304688 8.105469 L 3.304688 2.109375 L 14.695312 2.109375 Z M 2.699219 6.855469 L 2.6875 7.597656 L 1.765625 6.824219 C 1.253906 6.402344 0.835938 6.039062 0.832031 6.027344 C 0.828125 6.007812 1.25 5.699219 1.757812 5.335938 L 2.6875 4.675781 L 2.699219 5.394531 C 2.703125 5.789062 2.703125 6.449219 2.699219 6.855469 Z M 16.265625 5.355469 C 16.753906 5.699219 17.164062 5.992188 17.171875 6.007812 C 17.183594 6.03125 15.621094 7.363281 15.355469 7.550781 C 15.296875 7.597656 15.292969 7.539062 15.292969 6.132812 C 15.292969 4.976562 15.304688 4.675781 15.339844 4.695312 C 15.359375 4.710938 15.78125 5.007812 16.265625 5.355469 Z M 3.992188 9.457031 C 5.558594 10.757812 6.835938 11.835938 6.835938 11.851562 C 6.835938 11.871094 1.671875 16.1875 0.65625 17.011719 C 0.601562 17.058594 0.597656 16.726562 0.597656 11.847656 L 0.597656 6.636719 L 0.871094 6.867188 C 1.019531 6.988281 2.425781 8.15625 3.992188 9.457031 Z M 17.394531 14.445312 L 17.382812 17.046875 L 14.273438 14.464844 C 12.5625 13.039062 11.160156 11.867188 11.15625 11.855469 C 11.152344 11.839844 12.550781 10.667969 14.265625 9.242188 L 17.382812 6.65625 L 17.394531 9.25 C 17.398438 10.679688 17.398438 13.019531 17.394531 14.445312 Z M 7.691406 12.507812 C 7.933594 12.675781 8.371094 12.832031 8.730469 12.878906 C 8.984375 12.910156 9.09375 12.90625 9.363281 12.859375 C 9.855469 12.777344 10.148438 12.640625 10.582031 12.3125 L 10.671875 12.246094 L 13.761719 14.816406 L 16.851562 17.382812 L 12.925781 17.394531 C 10.769531 17.398438 7.234375 17.398438 5.078125 17.394531 L 1.148438 17.382812 L 4.238281 14.816406 L 7.328125 12.246094 L 7.429688 12.320312 C 7.484375 12.359375 7.605469 12.445312 7.691406 12.507812 Z M 7.691406 12.507812 "/>
<path style=" stroke:none;fill-rule:nonzero;fill:rgb(0%,0%,0%);fill-opacity:1;" d="M 9 3.292969 C 8.746094 3.316406 8.3125 3.410156 8.042969 3.5 C 6.863281 3.902344 5.78125 5.039062 5.441406 6.242188 C 5.335938 6.617188 5.328125 7.378906 5.429688 7.75 C 5.667969 8.65625 6.289062 9.402344 7.121094 9.777344 C 7.707031 10.039062 8.773438 10.214844 9.578125 10.183594 C 10.738281 10.136719 11.601562 9.796875 12.277344 9.136719 C 12.5625 8.855469 12.585938 8.820312 12.585938 8.695312 C 12.585938 8.554688 12.503906 8.441406 12.367188 8.390625 C 12.261719 8.351562 12.109375 8.433594 11.972656 8.59375 C 11.457031 9.21875 10.449219 9.597656 9.335938 9.597656 C 8.671875 9.59375 7.761719 9.414062 7.308594 9.195312 C 6.503906 8.804688 6.003906 8.042969 5.953125 7.132812 C 5.921875 6.6875 6 6.347656 6.222656 5.890625 C 6.585938 5.148438 7.242188 4.507812 7.996094 4.164062 C 8.859375 3.777344 9.929688 3.800781 10.640625 4.226562 C 11.074219 4.484375 11.46875 4.976562 11.640625 5.484375 C 11.746094 5.796875 11.773438 6.460938 11.691406 6.785156 C 11.566406 7.296875 11.222656 7.796875 10.898438 7.941406 C 10.679688 8.039062 10.328125 8.042969 10.230469 7.945312 C 10.140625 7.859375 10.140625 7.867188 10.246094 7.460938 C 10.351562 7.046875 10.722656 5.207031 10.722656 5.105469 C 10.722656 5.0625 10.683594 4.988281 10.636719 4.9375 C 10.574219 4.863281 10.527344 4.835938 10.421875 4.835938 C 10.253906 4.835938 10.140625 4.964844 10.105469 5.1875 L 10.082031 5.347656 L 9.914062 5.1875 C 9.648438 4.9375 9.261719 4.78125 8.917969 4.78125 C 8.144531 4.78125 7.246094 5.664062 7.015625 6.652344 C 6.898438 7.148438 6.976562 7.707031 7.210938 8.0625 C 7.648438 8.726562 8.667969 8.832031 9.410156 8.28125 L 9.613281 8.136719 L 9.71875 8.28125 C 9.882812 8.496094 10.152344 8.617188 10.484375 8.617188 C 10.78125 8.621094 10.980469 8.574219 11.226562 8.453125 C 11.6875 8.214844 12.101562 7.613281 12.273438 6.925781 C 12.339844 6.667969 12.347656 6.5625 12.328125 6.136719 C 12.308594 5.574219 12.253906 5.351562 12.058594 4.9375 C 11.570312 3.9375 10.652344 3.355469 9.476562 3.292969 C 9.300781 3.289062 9.085938 3.289062 9 3.292969 Z M 9.308594 5.480469 C 9.492188 5.574219 9.65625 5.765625 9.785156 6.042969 L 9.890625 6.269531 L 9.816406 6.640625 C 9.726562 7.0625 9.628906 7.234375 9.265625 7.609375 C 8.914062 7.96875 8.492188 8.113281 8.109375 8 C 7.746094 7.894531 7.558594 7.605469 7.558594 7.136719 C 7.558594 6.445312 8.132812 5.597656 8.71875 5.417969 C 8.882812 5.367188 9.140625 5.398438 9.308594 5.480469 Z M 9.308594 5.480469 "/>
</g>
</svg>
