<?xml version="1.0" standalone="no"?>
<!DOCTYPE svg PUBLIC "-//W3C//DTD SVG 20010904//EN"
 "http://www.w3.org/TR/2001/REC-SVG-20010904/DTD/svg10.dtd">
<svg version="1.0" xmlns="http://www.w3.org/2000/svg"
 width="512.000000pt" height="512.000000pt" viewBox="0 0 512.000000 512.000000"
 preserveAspectRatio="xMidYMid meet">

<g transform="translate(0.000000,512.000000) scale(0.100000,-0.100000)"
fill="#000000" stroke="none">
<path d="M445 5108 c-27 -5 -86 -27 -131 -48 -152 -73 -274 -232 -303 -394
-15 -83 -15 -4129 0 -4212 35 -194 186 -361 389 -430 53 -18 129 -19 2160 -19
2031 0 2107 1 2160 19 137 46 235 121 309 235 65 101 82 166 88 324 l6 137
-81 0 -80 0 -4 -129 c-4 -124 -5 -131 -41 -203 -44 -91 -102 -147 -195 -191
l-67 -32 -2095 0 -2095 0 -67 32 c-93 44 -151 100 -196 191 l-37 76 0 2095 0
2096 32 67 c44 93 100 151 191 195 72 36 79 37 203 41 l129 4 0 79 0 79 -112
-1 c-62 -1 -135 -5 -163 -11z"/>
<path d="M880 5040 l0 -80 80 0 80 0 0 80 0 80 -80 0 -80 0 0 -80z"/>
<path d="M1200 5040 l0 -80 1723 -2 1722 -3 57 -28 c134 -66 219 -235 248
-492 6 -57 10 -722 10 -1822 l0 -1733 80 0 81 0 -4 1798 c-3 1786 -3 1798 -24
1892 -71 319 -209 492 -431 539 -38 8 -543 11 -1757 11 l-1705 0 0 -80z"/>
<path d="M1394 4309 c-141 -24 -266 -91 -379 -204 -91 -91 -143 -174 -183
-290 l-27 -80 -3 -547 -3 -548 80 0 81 0 0 80 0 80 376 0 376 0 -5 -22 c-90
-360 63 -753 371 -952 507 -328 1179 -69 1333 514 34 130 35 306 2 438 l-5 22
376 0 377 0 -3 -697 -3 -698 -24 -62 c-64 -173 -195 -300 -371 -359 -52 -18
-109 -19 -1200 -19 -1091 0 -1148 1 -1200 19 -201 68 -355 238 -389 430 -7 35
-11 203 -11 403 l0 343 -81 0 -80 0 3 -388 4 -387 27 -80 c38 -115 91 -199
182 -290 91 -91 174 -143 290 -183 l80 -27 1175 0 1175 0 80 27 c116 40 199
92 290 183 91 91 143 174 183 290 l27 80 3 868 3 867 -81 0 -80 0 0 -80 0 -80
-407 0 -408 0 -45 72 c-244 397 -785 524 -1192 282 -102 -61 -230 -185 -289
-281 l-44 -73 -407 0 -408 0 0 343 c0 200 4 368 11 403 38 214 235 408 449
444 45 7 409 10 1180 8 l1115 -3 66 -26 c96 -37 148 -70 213 -135 65 -65 99
-118 135 -213 23 -61 25 -81 29 -283 l4 -218 80 0 80 0 -4 228 c-4 212 -6 232
-31 307 -38 115 -91 199 -182 290 -91 91 -174 143 -290 183 l-80 27 -1145 1
c-630 1 -1168 -2 -1196 -7z m1381 -1063 c113 -36 198 -89 290 -181 131 -131
199 -277 212 -454 30 -434 -330 -796 -765 -767 -107 6 -228 43 -320 97 -77 46
-208 179 -255 259 -21 36 -49 101 -64 145 -22 68 -26 98 -27 205 -1 148 14
215 76 340 73 147 234 290 388 346 143 51 324 55 465 10z"/>
<path d="M3580 3984 c-227 -82 -293 -362 -125 -529 66 -66 125 -90 225 -89 72
0 93 4 136 26 75 39 107 70 145 140 30 57 33 71 34 148 0 100 -24 159 -90 225
-82 82 -222 116 -325 79z m163 -158 c103 -43 128 -177 48 -257 -112 -113 -296
-12 -267 146 18 94 128 150 219 111z"/>
<path d="M800 2400 l0 -80 80 0 80 0 0 80 0 80 -80 0 -80 0 0 -80z"/>
</g>
</svg>
