<svg width="4" height="4" viewBox="0 0 4 4" fill="none" xmlns="http://www.w3.org/2000/svg">
<path d="M2.2861 0.138783C1.49302 0.138783 0.846069 0.798222 0.846069 1.72282C0.846069 2.90383 1.6629 3.57396 2.2036 3.95188C2.22779 3.96878 2.25659 3.97785 2.2861 3.97785C2.31562 3.97785 2.34442 3.96878 2.36861 3.95188C2.90931 3.57396 3.72614 2.90383 3.72614 1.72282C3.72614 0.798222 3.07919 0.138783 2.2861 0.138783ZM2.2861 0.426789C2.9234 0.426789 3.43813 0.92794 3.43813 1.72282C3.43813 2.72006 2.7985 3.28543 2.2861 3.65336C1.77371 3.28543 1.13408 2.72006 1.13408 1.72282C1.13408 0.92794 1.64881 0.426789 2.2861 0.426789ZM2.2861 0.810798C1.86364 0.810798 1.51809 1.15636 1.51809 1.57882C1.51809 2.00128 1.86364 2.34684 2.2861 2.34684C2.70856 2.34684 3.05412 2.00128 3.05412 1.57882C3.05412 1.15636 2.70856 0.810798 2.2861 0.810798ZM2.2861 1.09881C2.55291 1.09881 2.76611 1.31201 2.76611 1.57882C2.76611 1.84563 2.55291 2.05883 2.2861 2.05883C2.01929 2.05883 1.80609 1.84563 1.80609 1.57882C1.80609 1.31201 2.0193 1.09881 2.2861 1.09881Z" fill="#C2C2C2"/>
<path fill-rule="evenodd" clip-rule="evenodd" d="M2.2861 0.426789C2.9234 0.426789 3.43813 0.92794 3.43813 1.72282C3.43813 2.72006 2.7985 3.28543 2.2861 3.65336C1.77371 3.28543 1.13408 2.72006 1.13408 1.72282C1.13408 0.92794 1.64881 0.426789 2.2861 0.426789ZM1.51809 1.57882C1.51809 1.15636 1.86364 0.810798 2.2861 0.810798C2.70856 0.810798 3.05412 1.15636 3.05412 1.57882C3.05412 2.00128 2.70856 2.34684 2.2861 2.34684C1.86364 2.34684 1.51809 2.00128 1.51809 1.57882Z" fill="#C2C2C2"/>
</svg>
