<svg width="12" height="13" viewBox="0 0 12 13" fill="none" xmlns="http://www.w3.org/2000/svg">
<path d="M11.5262 0.601227H0.120336C0.0896075 0.601227 0.0646973 0.626137 0.0646973 0.656865V12.0628C0.0646973 12.0935 0.0896075 12.1184 0.120336 12.1184H11.5262C11.557 12.1184 11.5819 12.0935 11.5819 12.0628V0.656865C11.5819 0.626137 11.557 0.601227 11.5262 0.601227Z" fill="black"/>
<path d="M3.65577 11.3947H2.47791V5.6667H6.27774V6.74776H3.65577V7.94983H6.15673V9.03089H3.65577V11.3947ZM10.4261 5.6667H11.7895L9.67578 9.39393V11.3947H8.49792V9.39393L6.38421 5.6667H7.74763L9.07878 8.19186H9.09492L10.4261 5.6667Z" fill="white"/>
<path d="M3.12621 5.13534C3.72541 5.13534 4.21116 4.64959 4.21116 4.05039C4.21116 3.45119 3.72541 2.96544 3.12621 2.96544C2.52701 2.96544 2.04126 3.45119 2.04126 4.05039C2.04126 4.64959 2.52701 5.13534 3.12621 5.13534Z" fill="white"/>
</svg>
