<?xml version="1.0" encoding="UTF-8"?>
<svg xmlns="http://www.w3.org/2000/svg" xmlns:xlink="http://www.w3.org/1999/xlink" width="18px" height="18px" viewBox="0 0 18 18" version="1.1">
<g id="surface1">
<path style=" stroke:none;fill-rule:nonzero;fill:rgb(0%,0%,0%);fill-opacity:1;" d="M 4.429688 0.03125 C 4.152344 0.121094 3.875 0.34375 3.746094 0.59375 C 3.714844 0.648438 3.675781 0.804688 3.65625 0.9375 C 3.609375 1.265625 3.609375 16.734375 3.65625 17.0625 C 3.675781 17.195312 3.714844 17.351562 3.746094 17.40625 C 3.839844 17.582031 4.046875 17.789062 4.234375 17.886719 L 4.414062 17.984375 L 13.585938 17.984375 L 13.765625 17.886719 C 13.953125 17.789062 14.160156 17.582031 14.257812 17.40625 C 14.285156 17.347656 14.328125 17.171875 14.347656 17.027344 C 14.367188 16.847656 14.378906 14.394531 14.371094 9.859375 C 14.359375 3.132812 14.359375 2.960938 14.292969 2.886719 C 14.203125 2.785156 13.992188 2.785156 13.902344 2.886719 C 13.835938 2.960938 13.835938 3.125 13.824219 9.601562 L 13.816406 16.242188 L 6.886719 16.242188 L 6.804688 16.328125 C 6.691406 16.4375 6.691406 16.574219 6.804688 16.679688 L 6.886719 16.769531 L 13.816406 16.769531 L 13.816406 16.941406 C 13.816406 17.148438 13.710938 17.320312 13.535156 17.410156 C 13.417969 17.46875 13.132812 17.472656 9 17.472656 C 4.867188 17.472656 4.582031 17.46875 4.464844 17.410156 C 4.289062 17.320312 4.183594 17.148438 4.183594 16.941406 L 4.183594 16.769531 L 5.019531 16.769531 C 5.816406 16.769531 5.859375 16.765625 5.933594 16.699219 C 6.039062 16.601562 6.039062 16.410156 5.933594 16.3125 C 5.859375 16.246094 5.816406 16.242188 5.019531 16.242188 L 4.183594 16.242188 L 4.183594 0.890625 L 4.265625 0.769531 C 4.414062 0.546875 4.496094 0.527344 5.328125 0.527344 L 6.070312 0.527344 L 6.09375 0.886719 C 6.113281 1.195312 6.128906 1.265625 6.210938 1.402344 C 6.273438 1.5 6.367188 1.589844 6.464844 1.640625 L 6.621094 1.722656 L 11.378906 1.722656 L 11.535156 1.640625 C 11.632812 1.589844 11.726562 1.5 11.789062 1.402344 C 11.871094 1.265625 11.886719 1.195312 11.90625 0.886719 L 11.929688 0.527344 L 12.671875 0.527344 C 13.484375 0.527344 13.578125 0.546875 13.726562 0.75 C 13.789062 0.835938 13.800781 0.914062 13.816406 1.390625 C 13.835938 1.886719 13.839844 1.9375 13.910156 2.007812 C 14.007812 2.109375 14.183594 2.109375 14.285156 2.011719 C 14.347656 1.949219 14.359375 1.882812 14.371094 1.601562 C 14.390625 1.21875 14.332031 0.75 14.257812 0.59375 C 14.160156 0.417969 13.953125 0.210938 13.765625 0.113281 L 13.585938 0.015625 L 9.054688 0.0117188 C 6.554688 0.0078125 4.480469 0.015625 4.429688 0.03125 Z M 11.355469 0.820312 C 11.355469 1 11.335938 1.128906 11.3125 1.152344 C 11.253906 1.210938 6.746094 1.210938 6.6875 1.152344 C 6.664062 1.128906 6.644531 1 6.644531 0.820312 L 6.644531 0.527344 L 11.355469 0.527344 Z M 11.355469 0.820312 "/>
<path style=" stroke:none;fill-rule:nonzero;fill:rgb(0%,0%,0%);fill-opacity:1;" d="M 8.664062 5.398438 C 8.554688 5.503906 8.550781 5.660156 8.660156 5.753906 C 8.71875 5.8125 8.804688 5.832031 9.035156 5.851562 C 9.898438 5.921875 10.648438 6.273438 11.21875 6.882812 C 11.726562 7.429688 12.027344 8.085938 12.101562 8.832031 C 12.132812 9.140625 12.15625 9.246094 12.210938 9.304688 C 12.304688 9.414062 12.460938 9.410156 12.570312 9.296875 C 12.667969 9.203125 12.671875 9.15625 12.621094 8.71875 C 12.519531 7.828125 12.128906 7.03125 11.484375 6.410156 C 10.867188 5.808594 10.136719 5.457031 9.28125 5.34375 C 8.855469 5.289062 8.761719 5.296875 8.664062 5.398438 Z M 8.664062 5.398438 "/>
<path style=" stroke:none;fill-rule:nonzero;fill:rgb(0%,0%,0%);fill-opacity:1;" d="M 6.417969 5.734375 C 6.019531 5.949219 5.664062 6.195312 5.574219 6.324219 C 5.226562 6.824219 5.296875 7.75 5.75 8.652344 C 5.90625 8.960938 6.304688 9.546875 6.59375 9.898438 C 6.9375 10.316406 7.703125 11.078125 8.101562 11.402344 C 9.226562 12.3125 10.261719 12.71875 11.09375 12.585938 C 11.578125 12.507812 11.726562 12.394531 12.0625 11.835938 C 12.3125 11.425781 12.355469 11.242188 12.25 11.023438 C 12.199219 10.914062 12.0625 10.808594 11.445312 10.394531 C 11.039062 10.125 10.644531 9.878906 10.570312 9.855469 C 10.320312 9.765625 10.113281 9.867188 9.875 10.195312 C 9.777344 10.332031 9.6875 10.441406 9.683594 10.441406 C 9.636719 10.441406 9.160156 10.128906 8.964844 9.96875 C 8.6875 9.738281 8.152344 9.195312 7.933594 8.921875 C 7.800781 8.753906 7.523438 8.320312 7.523438 8.28125 C 7.523438 8.273438 7.625 8.195312 7.75 8.105469 C 8.003906 7.925781 8.070312 7.84375 8.121094 7.65625 C 8.175781 7.460938 8.117188 7.335938 7.570312 6.519531 C 7.035156 5.71875 6.976562 5.660156 6.691406 5.660156 C 6.617188 5.660156 6.492188 5.691406 6.417969 5.734375 Z M 7.167969 6.867188 L 7.621094 7.542969 L 7.390625 7.71875 C 6.941406 8.054688 6.894531 8.242188 7.15625 8.707031 C 7.382812 9.105469 7.679688 9.46875 8.195312 9.96875 C 8.664062 10.421875 8.964844 10.652344 9.335938 10.84375 C 9.738281 11.054688 9.929688 11 10.246094 10.574219 L 10.421875 10.34375 L 11.097656 10.796875 C 11.472656 11.046875 11.777344 11.261719 11.777344 11.269531 C 11.777344 11.332031 11.410156 11.890625 11.335938 11.949219 C 11.210938 12.042969 10.886719 12.109375 10.640625 12.078125 C 9.792969 11.992188 8.855469 11.441406 7.789062 10.40625 C 6.625 9.269531 5.976562 8.230469 5.886719 7.328125 C 5.855469 7.066406 5.921875 6.742188 6.023438 6.625 C 6.09375 6.542969 6.625 6.195312 6.6875 6.1875 C 6.699219 6.1875 6.917969 6.492188 7.167969 6.867188 Z M 7.167969 6.867188 "/>
<path style=" stroke:none;fill-rule:nonzero;fill:rgb(0%,0%,0%);fill-opacity:1;" d="M 8.648438 6.996094 C 8.570312 7.074219 8.558594 7.207031 8.613281 7.3125 C 8.65625 7.390625 8.828125 7.453125 9.007812 7.453125 C 9.164062 7.453125 9.527344 7.570312 9.703125 7.675781 C 9.890625 7.789062 10.144531 8.035156 10.261719 8.21875 C 10.390625 8.425781 10.511719 8.777344 10.511719 8.957031 C 10.511719 9.242188 10.613281 9.386719 10.808594 9.386719 C 10.964844 9.386719 11.039062 9.273438 11.039062 9.035156 C 11.039062 8.730469 10.980469 8.492188 10.820312 8.15625 C 10.703125 7.917969 10.621094 7.800781 10.390625 7.574219 C 9.96875 7.148438 9.46875 6.925781 8.929688 6.925781 C 8.765625 6.925781 8.703125 6.941406 8.648438 6.996094 Z M 8.648438 6.996094 "/>
</g>
</svg>
