<?xml version="1.0" encoding="UTF-8"?>
<svg xmlns="http://www.w3.org/2000/svg" xmlns:xlink="http://www.w3.org/1999/xlink" width="18px" height="18px" viewBox="0 0 18 18" version="1.1">
<g id="surface1">
<path style=" stroke:none;fill-rule:nonzero;fill:rgb(0%,0%,0%);fill-opacity:1;" d="M 10.058594 0.0546875 C 10.011719 0.0859375 9.957031 0.167969 9.929688 0.230469 C 9.886719 0.335938 9.886719 0.367188 9.929688 0.472656 C 10 0.648438 10.105469 0.703125 10.355469 0.703125 C 10.476562 0.703125 10.738281 0.71875 10.9375 0.738281 C 14.277344 1.078125 16.921875 3.722656 17.261719 7.0625 C 17.28125 7.261719 17.296875 7.523438 17.296875 7.644531 C 17.296875 7.894531 17.351562 8 17.527344 8.070312 C 17.632812 8.113281 17.664062 8.113281 17.769531 8.070312 C 18.011719 7.96875 18.042969 7.804688 17.964844 7.027344 C 17.730469 4.640625 16.441406 2.539062 14.40625 1.214844 C 13.980469 0.9375 13.175781 0.554688 12.667969 0.390625 C 11.722656 0.0820312 10.285156 -0.101562 10.058594 0.0546875 Z M 10.058594 0.0546875 "/>
<path style=" stroke:none;fill-rule:nonzero;fill:rgb(0%,0%,0%);fill-opacity:1;" d="M 10.066406 2.175781 C 9.871094 2.296875 9.84375 2.5625 10.011719 2.710938 C 10.105469 2.792969 10.152344 2.804688 10.496094 2.828125 C 13.054688 2.988281 15.011719 4.945312 15.171875 7.503906 C 15.195312 7.851562 15.207031 7.894531 15.289062 7.992188 C 15.453125 8.171875 15.757812 8.109375 15.855469 7.875 C 15.949219 7.644531 15.8125 6.65625 15.589844 5.960938 C 15.070312 4.371094 13.726562 3 12.144531 2.449219 C 11.695312 2.296875 11.253906 2.195312 10.820312 2.148438 C 10.335938 2.09375 10.195312 2.097656 10.066406 2.175781 Z M 10.066406 2.175781 "/>
<path style=" stroke:none;fill-rule:nonzero;fill:rgb(0%,0%,0%);fill-opacity:1;" d="M 2.335938 2.59375 C 2.234375 2.628906 2.09375 2.707031 2.015625 2.769531 C 1.710938 3.007812 0.910156 3.878906 0.707031 4.1875 C 0 5.257812 -0.183594 6.535156 0.195312 7.742188 C 0.367188 8.285156 1.070312 9.585938 1.75 10.617188 C 2.523438 11.792969 3.285156 12.710938 4.355469 13.785156 C 5.410156 14.835938 6.195312 15.484375 7.328125 16.242188 C 8.15625 16.789062 9.242188 17.414062 9.792969 17.644531 C 10.878906 18.105469 12.039062 18.105469 13.125 17.648438 C 13.453125 17.507812 13.78125 17.308594 14.117188 17.039062 C 14.5 16.726562 15.265625 15.941406 15.34375 15.765625 C 15.441406 15.566406 15.453125 15.203125 15.382812 14.96875 C 15.324219 14.796875 15.214844 14.679688 13.785156 13.242188 C 12.074219 11.523438 12.0625 11.515625 11.640625 11.515625 C 11.246094 11.515625 11.148438 11.585938 10.351562 12.371094 C 9.96875 12.753906 9.59375 13.097656 9.527344 13.132812 C 9.449219 13.171875 9.332031 13.199219 9.203125 13.199219 C 9.015625 13.195312 8.980469 13.179688 8.640625 12.953125 C 8.441406 12.824219 8.113281 12.589844 7.910156 12.429688 C 7.578125 12.179688 7.523438 12.148438 7.390625 12.148438 C 7.261719 12.148438 7.222656 12.164062 7.152344 12.246094 C 7.050781 12.359375 7.039062 12.566406 7.117188 12.675781 C 7.222656 12.824219 8.289062 13.597656 8.632812 13.773438 C 8.851562 13.886719 9.195312 13.9375 9.4375 13.890625 C 9.859375 13.8125 9.976562 13.726562 10.753906 12.953125 C 11.195312 12.523438 11.515625 12.230469 11.570312 12.21875 C 11.628906 12.203125 11.703125 12.214844 11.761719 12.246094 C 11.820312 12.277344 12.507812 12.945312 13.300781 13.734375 C 14.710938 15.152344 14.730469 15.171875 14.730469 15.3125 C 14.730469 15.453125 14.710938 15.476562 14.15625 16.015625 C 13.558594 16.609375 13.347656 16.765625 12.914062 16.96875 C 12.4375 17.1875 12.039062 17.273438 11.476562 17.273438 C 10.703125 17.277344 10.335938 17.164062 9.386719 16.652344 C 6.804688 15.257812 4.78125 13.527344 3.035156 11.214844 C 2.15625 10.050781 1.128906 8.3125 0.882812 7.578125 C 0.628906 6.808594 0.652344 5.960938 0.960938 5.203125 C 1.164062 4.703125 1.332031 4.46875 1.929688 3.855469 C 2.25 3.53125 2.546875 3.257812 2.589844 3.25 C 2.636719 3.234375 2.71875 3.246094 2.769531 3.265625 C 2.828125 3.289062 3.523438 3.960938 4.316406 4.761719 C 5.726562 6.171875 5.765625 6.210938 5.765625 6.34375 C 5.765625 6.476562 5.734375 6.515625 5.046875 7.203125 C 4.414062 7.839844 4.3125 7.960938 4.214844 8.171875 C 4.128906 8.359375 4.09375 8.476562 4.085938 8.683594 C 4.0625 9.085938 4.132812 9.269531 4.507812 9.828125 C 4.9375 10.46875 5.011719 10.546875 5.199219 10.546875 C 5.320312 10.546875 5.371094 10.527344 5.453125 10.445312 C 5.628906 10.269531 5.601562 10.171875 5.234375 9.648438 C 4.859375 9.121094 4.785156 8.96875 4.78125 8.761719 C 4.78125 8.492188 4.859375 8.382812 5.621094 7.613281 C 6.425781 6.800781 6.46875 6.734375 6.46875 6.328125 C 6.46875 5.929688 6.421875 5.875 4.757812 4.214844 C 3.722656 3.179688 3.203125 2.6875 3.09375 2.636719 C 2.878906 2.527344 2.566406 2.511719 2.335938 2.59375 Z M 2.335938 2.59375 "/>
<path style=" stroke:none;fill-rule:nonzero;fill:rgb(0%,0%,0%);fill-opacity:1;" d="M 10.101562 4.269531 C 9.878906 4.367188 9.832031 4.65625 10.011719 4.820312 C 10.097656 4.898438 10.160156 4.914062 10.40625 4.9375 C 11.40625 5.023438 12.191406 5.511719 12.6875 6.351562 C 12.882812 6.683594 13 7.066406 13.050781 7.511719 C 13.085938 7.835938 13.101562 7.902344 13.183594 7.992188 C 13.253906 8.070312 13.304688 8.09375 13.40625 8.09375 C 13.710938 8.09375 13.804688 7.90625 13.75 7.40625 C 13.613281 6.175781 12.894531 5.148438 11.796875 4.597656 C 11.234375 4.316406 10.367188 4.148438 10.101562 4.269531 Z M 10.101562 4.269531 "/>
<path style=" stroke:none;fill-rule:nonzero;fill:rgb(0%,0%,0%);fill-opacity:1;" d="M 10.03125 6.414062 C 9.941406 6.476562 9.882812 6.652344 9.90625 6.773438 C 9.933594 6.914062 10.078125 7.023438 10.277344 7.046875 C 10.65625 7.097656 10.902344 7.34375 10.953125 7.722656 C 10.988281 8.011719 11.164062 8.144531 11.414062 8.078125 C 11.578125 8.035156 11.648438 7.914062 11.640625 7.6875 C 11.628906 7.179688 11.324219 6.71875 10.835938 6.480469 C 10.59375 6.359375 10.152344 6.324219 10.03125 6.414062 Z M 10.03125 6.414062 "/>
<path style=" stroke:none;fill-rule:nonzero;fill:rgb(0%,0%,0%);fill-opacity:1;" d="M 6.007812 11.171875 C 5.820312 11.339844 5.871094 11.628906 6.105469 11.726562 C 6.203125 11.769531 6.253906 11.773438 6.347656 11.742188 C 6.59375 11.660156 6.660156 11.363281 6.472656 11.175781 C 6.332031 11.039062 6.160156 11.035156 6.007812 11.171875 Z M 6.007812 11.171875 "/>
</g>
</svg>
