<?xml version="1.0" encoding="UTF-8"?>
<svg xmlns="http://www.w3.org/2000/svg" xmlns:xlink="http://www.w3.org/1999/xlink" width="20px" height="20px" viewBox="0 0 20 20" version="1.1">
<g id="surface1">
<path style=" stroke:none;fill-rule:nonzero;fill:rgb(0%,0%,0%);fill-opacity:1;" d="M 5.484375 0.0546875 C 4.640625 0.25 4.0625 0.992188 4.0625 1.890625 C 4.0625 2.25 4.125 2.476562 4.304688 2.828125 C 4.4375 3.070312 4.953125 3.609375 10.109375 8.796875 L 11.34375 10.039062 L 7.859375 13.523438 C 5.148438 16.242188 4.359375 17.054688 4.28125 17.203125 C 3.890625 17.992188 4.03125 18.921875 4.609375 19.46875 C 5.09375 19.921875 5.851562 20.09375 6.484375 19.90625 C 6.953125 19.765625 7.03125 19.703125 8.671875 18.070312 C 14.992188 11.804688 15.59375 11.203125 15.703125 10.984375 C 16.015625 10.359375 16.015625 9.734375 15.71875 9.125 C 15.640625 8.96875 14.703125 8 11.335938 4.640625 C 8.34375 1.648438 7 0.328125 6.875 0.25 C 6.46875 0.03125 5.921875 -0.046875 5.484375 0.0546875 Z M 6.234375 1.484375 C 6.3125 1.546875 8.242188 3.453125 10.515625 5.726562 C 13.796875 9.015625 14.640625 9.890625 14.671875 9.984375 C 14.6875 10.09375 14.671875 10.15625 14.5625 10.320312 C 14.382812 10.59375 6.390625 18.578125 6.234375 18.632812 C 5.875 18.765625 5.5 18.570312 5.46875 18.21875 C 5.4375 17.882812 5.226562 18.117188 9.171875 14.15625 C 11.21875 12.125 12.90625 10.390625 12.945312 10.328125 C 13.023438 10.171875 13.03125 9.960938 12.953125 9.796875 C 12.921875 9.71875 11.476562 8.25 9.21875 6.015625 C 7.078125 3.890625 5.507812 2.304688 5.46875 2.21875 C 5.3125 1.9375 5.40625 1.609375 5.671875 1.445312 C 5.859375 1.328125 6.046875 1.34375 6.234375 1.484375 Z M 6.234375 1.484375 "/>
</g>
</svg>
