<svg display="none" xmlns="http://www.w3.org/2000/svg">
    <symbol id="mail" viewBox="0 0 512.000000 512.000000">
        <g transform="translate(0.000000,512.000000) scale(0.100000,-0.100000)" stroke="none">
            <path d="M2460 5104 c-25 -9 -58 -26 -75 -37 -16 -12 -181 -169 -365 -349 l-335 -328 -372 0 c-432 0 -442 -2 -534 -91 -94 -92 -94 -88 -97 -519 l-3 -375 -168 -170 c-98 -99 -179 -189 -193 -215 l-23 -45 -3 -492 -3 -492 23 -20 c37 -35 90 -26 113 20 13 23 15 103 15 484 0 250 3 455 8 455 11 -1 1608 -1588 1602 -1593 -3 -3 -365 -203 -805 -444 l-800 -440 -5 639 -5 640 -24 19 c-30 25 -76 24 -101 -1 -20 -20 -20 -29 -18 -773 l3 -752 23 -43 c35 -66 88 -119 150 -149 l57 -28 1438 -3 1438 -2 24 24 c32 32 32 70 0 101 l-24 25 -1413 0 c-1356 0 -1415 1 -1454 19 -41 19 -79 61 -86 94 -5 28 2036 1148 2102 1155 39 4 57 -2 130 -41 137 -72 1984 -1088 1992 -1095 16 -16 -38 -87 -82 -110 -44 -22 -48 -22 -476 -22 -421 0 -432 0 -458 -21 -36 -29 -36 -80 1 -109 26 -21 32 -21 482 -18 l456 3 57 28 c62 30 115 83 150 149 l23 43 0 1375 0 1375 -27 50 c-17 32 -88 111 -192 215 l-166 165 0 97 c0 85 -3 101 -20 118 -33 33 -75 30 -107 -6 l-23 -25 0 -407 0 -407 -680 -680 -680 -680 -63 33 c-228 122 -215 117 -307 117 -92 0 -75 7 -307 -117 l-63 -33 -680 680 -680 680 0 669 0 669 25 44 c16 26 41 51 65 63 39 20 59 20 1641 20 l1602 0 41 -24 c23 -13 51 -42 64 -64 19 -35 22 -54 22 -160 0 -104 3 -123 20 -144 25 -33 49 -39 88 -22 41 17 45 36 40 196 -3 117 -6 139 -28 183 -35 72 -105 138 -173 164 -55 20 -74 21 -430 21 l-372 0 -345 338 c-260 255 -357 343 -395 361 -65 31 -172 38 -235 15z m168 -149 c24 -10 132 -111 307 -283 148 -147 271 -270 273 -274 2 -5 -289 -8 -647 -8 -358 0 -651 1 -651 3 0 14 539 537 571 555 49 26 95 28 147 7z m-1948 -1897 l0 -133 -67 67 -68 68 65 65 c35 36 66 65 67 65 2 0 3 -60 3 -132z m3827 -65 l-67 -68 0 135 0 135 67 -68 68 -67 -68 -67z m173 -1304 l0 -1241 -32 20 c-18 11 -379 210 -803 442 -423 232 -772 425 -775 427 -6 5 1591 1592 1603 1593 4 0 7 -558 7 -1241z" />
            <path d="M2380 3789 c-189 -49 -342 -158 -445 -318 -303 -468 -21 -1085 531 -1161 113 -15 154 5 154 73 0 41 -37 63 -126 75 -105 14 -178 42 -270 104 -253 169 -336 506 -192 781 47 89 165 205 255 251 243 122 528 75 710 -117 107 -113 163 -240 163 -368 0 -65 -30 -190 -59 -247 -51 -101 -177 -137 -216 -62 -12 24 -15 83 -15 355 0 312 -1 326 -20 345 -30 30 -83 27 -109 -6 -12 -15 -21 -38 -21 -51 0 -14 -3 -23 -7 -21 -77 40 -91 43 -183 43 -83 0 -101 -4 -145 -27 -149 -78 -236 -266 -205 -446 48 -288 316 -439 518 -292 l43 31 47 -49 c58 -59 103 -76 186 -70 123 10 231 97 280 226 98 256 64 485 -103 695 -100 126 -240 215 -405 257 -105 27 -262 26 -366 -1z m230 -484 c122 -63 148 -304 47 -437 -45 -59 -110 -86 -167 -69 -125 37 -196 208 -151 363 16 55 66 118 113 141 42 21 120 22 158 2z" />
        </g>
    </symbol>

    <symbol id="telegram" viewBox="0 0 512.000000 512.000000">
        <g transform="translate(0.000000,512.000000) scale(0.100000,-0.100000)" stroke="none">
            <path d="M4845 5115 c-5 -2 -1045 -342 -2309 -755 -1264 -413 -2321 -763 -2349 -777 -174 -95 -238 -338 -135 -513 12 -19 195 -210 409 -425 288 -291 393 -403 412 -440 33 -67 50 -153 41 -212 -4 -27 -92 -308 -195 -625 -104 -318 -189 -592 -189 -609 0 -129 125 -243 248 -227 20 3 237 71 482 151 781 256 744 246 837 227 117 -25 134 -38 548 -449 215 -214 406 -397 425 -409 175 -103 418 -39 513 135 31 58 1527 4629 1534 4688 15 127 -97 247 -227 244 -19 0 -39 -2 -45 -4z m100 -170 c14 -13 25 -33 25 -43 0 -36 -1502 -4617 -1526 -4654 -31 -48 -103 -90 -165 -96 -105 -10 -93 -20 -682 567 -357 356 -544 550 -557 577 -25 51 -26 135 -1 189 11 24 410 476 999 1129 540 599 989 1105 998 1124 42 89 25 182 -46 252 -70 71 -163 88 -252 46 -30 -15 -976 -855 -1020 -908 -41 -47 -8 -118 56 -118 30 0 83 45 527 445 272 245 504 448 517 451 53 14 105 -41 86 -92 -5 -14 -412 -472 -904 -1018 l-895 -994 -21 59 c-23 62 -30 75 -78 127 -45 49 -82 73 -147 96 l-57 21 409 368 c262 236 411 377 415 393 13 50 -49 104 -96 85 -14 -5 -245 -209 -515 -452 -282 -254 -507 -450 -530 -460 -54 -25 -138 -24 -189 1 -27 13 -222 200 -573 552 -565 566 -572 575 -573 668 0 60 39 140 83 174 38 29 49 33 1832 615 506 165 1345 439 1865 610 520 170 955 310 968 310 13 1 34 -10 47 -24z m-3708 -3043 c51 -24 70 -27 158 -27 95 1 105 3 204 44 90 37 111 43 153 38 26 -3 55 -10 63 -14 11 -7 -125 -148 -555 -578 l-570 -570 19 60 c218 661 342 1053 351 1108 l12 68 54 -51 c30 -28 80 -63 111 -78z m720 -150 c5 -42 -1 -63 -38 -153 -41 -99 -43 -109 -44 -204 0 -88 3 -107 27 -158 15 -31 50 -81 78 -111 l51 -54 -68 -12 c-55 -9 -447 -133 -1108 -351 l-60 -19 570 570 c430 430 571 566 578 555 4 -8 11 -37 14 -63z" />
        </g>
    </symbol>

    <symbol id="instagram" viewBox="0 0 512.000000 512.000000">
        <g transform="translate(0.000000,512.000000) scale(0.100000,-0.100000)" stroke="none">
            <path d="M445 5108 c-27 -5 -86 -27 -131 -48 -152 -73 -274 -232 -303 -394 -15 -83 -15 -4129 0 -4212 35 -194 186 -361 389 -430 53 -18 129 -19 2160 -19 2031 0 2107 1 2160 19 137 46 235 121 309 235 65 101 82 166 88 324 l6 137 -81 0 -80 0 -4 -129 c-4 -124 -5 -131 -41 -203 -44 -91 -102 -147 -195 -191 l-67 -32 -2095 0 -2095 0 -67 32 c-93 44 -151 100 -196 191 l-37 76 0 2095 0 2096 32 67 c44 93 100 151 191 195 72 36 79 37 203 41 l129 4 0 79 0 79 -112 -1 c-62 -1 -135 -5 -163 -11z" />
            <path d="M880 5040 l0 -80 80 0 80 0 0 80 0 80 -80 0 -80 0 0 -80z" />
            <path d="M1200 5040 l0 -80 1723 -2 1722 -3 57 -28 c134 -66 219 -235 248 -492 6 -57 10 -722 10 -1822 l0 -1733 80 0 81 0 -4 1798 c-3 1786 -3 1798 -24 1892 -71 319 -209 492 -431 539 -38 8 -543 11 -1757 11 l-1705 0 0 -80z" />
            <path d="M1394 4309 c-141 -24 -266 -91 -379 -204 -91 -91 -143 -174 -183 -290 l-27 -80 -3 -547 -3 -548 80 0 81 0 0 80 0 80 376 0 376 0 -5 -22 c-90 -360 63 -753 371 -952 507 -328 1179 -69 1333 514 34 130 35 306 2 438 l-5 22 376 0 377 0 -3 -697 -3 -698 -24 -62 c-64 -173 -195 -300 -371 -359 -52 -18 -109 -19 -1200 -19 -1091 0 -1148 1 -1200 19 -201 68 -355 238 -389 430 -7 35 -11 203 -11 403 l0 343 -81 0 -80 0 3 -388 4 -387 27 -80 c38 -115 91 -199 182 -290 91 -91 174 -143 290 -183 l80 -27 1175 0 1175 0 80 27 c116 40 199 92 290 183 91 91 143 174 183 290 l27 80 3 868 3 867 -81 0 -80 0 0 -80 0 -80 -407 0 -408 0 -45 72 c-244 397 -785 524 -1192 282 -102 -61 -230 -185 -289 -281 l-44 -73 -407 0 -408 0 0 343 c0 200 4 368 11 403 38 214 235 408 449 444 45 7 409 10 1180 8 l1115 -3 66 -26 c96 -37 148 -70 213 -135 65 -65 99 -118 135 -213 23 -61 25 -81 29 -283 l4 -218 80 0 80 0 -4 228 c-4 212 -6 232 -31 307 -38 115 -91 199 -182 290 -91 91 -174 143 -290 183 l-80 27 -1145 1 c-630 1 -1168 -2 -1196 -7z m1381 -1063 c113 -36 198 -89 290 -181 131 -131 199 -277 212 -454 30 -434 -330 -796 -765 -767 -107 6 -228 43 -320 97 -77 46 -208 179 -255 259 -21 36 -49 101 -64 145 -22 68 -26 98 -27 205 -1 148 14 215 76 340 73 147 234 290 388 346 143 51 324 55 465 10z" />
            <path d="M3580 3984 c-227 -82 -293 -362 -125 -529 66 -66 125 -90 225 -89 72 0 93 4 136 26 75 39 107 70 145 140 30 57 33 71 34 148 0 100 -24 159 -90 225 -82 82 -222 116 -325 79z m163 -158 c103 -43 128 -177 48 -257 -112 -113 -296 -12 -267 146 18 94 128 150 219 111z" />
            <path d="M800 2400 l0 -80 80 0 80 0 0 80 0 80 -80 0 -80 0 0 -80z" />
        </g>
    </symbol>

    <symbol id="phone" viewBox="0 0 512.000000 512.000000">
        <g transform="translate(0.000000,512.000000) scale(0.100000,-0.100000)" stroke="none">
            <path style=" stroke:none;fill-rule:nonzero;fill:rgb(0%,0%,0%);fill-opacity:1;" d="M 4.429688 0.03125 C 4.152344 0.121094 3.875 0.34375 3.746094 0.59375 C 3.714844 0.648438 3.675781 0.804688 3.65625 0.9375 C 3.609375 1.265625 3.609375 16.734375 3.65625 17.0625 C 3.675781 17.195312 3.714844 17.351562 3.746094 17.40625 C 3.839844 17.582031 4.046875 17.789062 4.234375 17.886719 L 4.414062 17.984375 L 13.585938 17.984375 L 13.765625 17.886719 C 13.953125 17.789062 14.160156 17.582031 14.257812 17.40625 C 14.285156 17.347656 14.328125 17.171875 14.347656 17.027344 C 14.367188 16.847656 14.378906 14.394531 14.371094 9.859375 C 14.359375 3.132812 14.359375 2.960938 14.292969 2.886719 C 14.203125 2.785156 13.992188 2.785156 13.902344 2.886719 C 13.835938 2.960938 13.835938 3.125 13.824219 9.601562 L 13.816406 16.242188 L 6.886719 16.242188 L 6.804688 16.328125 C 6.691406 16.4375 6.691406 16.574219 6.804688 16.679688 L 6.886719 16.769531 L 13.816406 16.769531 L 13.816406 16.941406 C 13.816406 17.148438 13.710938 17.320312 13.535156 17.410156 C 13.417969 17.46875 13.132812 17.472656 9 17.472656 C 4.867188 17.472656 4.582031 17.46875 4.464844 17.410156 C 4.289062 17.320312 4.183594 17.148438 4.183594 16.941406 L 4.183594 16.769531 L 5.019531 16.769531 C 5.816406 16.769531 5.859375 16.765625 5.933594 16.699219 C 6.039062 16.601562 6.039062 16.410156 5.933594 16.3125 C 5.859375 16.246094 5.816406 16.242188 5.019531 16.242188 L 4.183594 16.242188 L 4.183594 0.890625 L 4.265625 0.769531 C 4.414062 0.546875 4.496094 0.527344 5.328125 0.527344 L 6.070312 0.527344 L 6.09375 0.886719 C 6.113281 1.195312 6.128906 1.265625 6.210938 1.402344 C 6.273438 1.5 6.367188 1.589844 6.464844 1.640625 L 6.621094 1.722656 L 11.378906 1.722656 L 11.535156 1.640625 C 11.632812 1.589844 11.726562 1.5 11.789062 1.402344 C 11.871094 1.265625 11.886719 1.195312 11.90625 0.886719 L 11.929688 0.527344 L 12.671875 0.527344 C 13.484375 0.527344 13.578125 0.546875 13.726562 0.75 C 13.789062 0.835938 13.800781 0.914062 13.816406 1.390625 C 13.835938 1.886719 13.839844 1.9375 13.910156 2.007812 C 14.007812 2.109375 14.183594 2.109375 14.285156 2.011719 C 14.347656 1.949219 14.359375 1.882812 14.371094 1.601562 C 14.390625 1.21875 14.332031 0.75 14.257812 0.59375 C 14.160156 0.417969 13.953125 0.210938 13.765625 0.113281 L 13.585938 0.015625 L 9.054688 0.0117188 C 6.554688 0.0078125 4.480469 0.015625 4.429688 0.03125 Z M 11.355469 0.820312 C 11.355469 1 11.335938 1.128906 11.3125 1.152344 C 11.253906 1.210938 6.746094 1.210938 6.6875 1.152344 C 6.664062 1.128906 6.644531 1 6.644531 0.820312 L 6.644531 0.527344 L 11.355469 0.527344 Z M 11.355469 0.820312 "/>
            <path style=" stroke:none;fill-rule:nonzero;fill:rgb(0%,0%,0%);fill-opacity:1;" d="M 8.664062 5.398438 C 8.554688 5.503906 8.550781 5.660156 8.660156 5.753906 C 8.71875 5.8125 8.804688 5.832031 9.035156 5.851562 C 9.898438 5.921875 10.648438 6.273438 11.21875 6.882812 C 11.726562 7.429688 12.027344 8.085938 12.101562 8.832031 C 12.132812 9.140625 12.15625 9.246094 12.210938 9.304688 C 12.304688 9.414062 12.460938 9.410156 12.570312 9.296875 C 12.667969 9.203125 12.671875 9.15625 12.621094 8.71875 C 12.519531 7.828125 12.128906 7.03125 11.484375 6.410156 C 10.867188 5.808594 10.136719 5.457031 9.28125 5.34375 C 8.855469 5.289062 8.761719 5.296875 8.664062 5.398438 Z M 8.664062 5.398438 "/>
            <path style=" stroke:none;fill-rule:nonzero;fill:rgb(0%,0%,0%);fill-opacity:1;" d="M 6.417969 5.734375 C 6.019531 5.949219 5.664062 6.195312 5.574219 6.324219 C 5.226562 6.824219 5.296875 7.75 5.75 8.652344 C 5.90625 8.960938 6.304688 9.546875 6.59375 9.898438 C 6.9375 10.316406 7.703125 11.078125 8.101562 11.402344 C 9.226562 12.3125 10.261719 12.71875 11.09375 12.585938 C 11.578125 12.507812 11.726562 12.394531 12.0625 11.835938 C 12.3125 11.425781 12.355469 11.242188 12.25 11.023438 C 12.199219 10.914062 12.0625 10.808594 11.445312 10.394531 C 11.039062 10.125 10.644531 9.878906 10.570312 9.855469 C 10.320312 9.765625 10.113281 9.867188 9.875 10.195312 C 9.777344 10.332031 9.6875 10.441406 9.683594 10.441406 C 9.636719 10.441406 9.160156 10.128906 8.964844 9.96875 C 8.6875 9.738281 8.152344 9.195312 7.933594 8.921875 C 7.800781 8.753906 7.523438 8.320312 7.523438 8.28125 C 7.523438 8.273438 7.625 8.195312 7.75 8.105469 C 8.003906 7.925781 8.070312 7.84375 8.121094 7.65625 C 8.175781 7.460938 8.117188 7.335938 7.570312 6.519531 C 7.035156 5.71875 6.976562 5.660156 6.691406 5.660156 C 6.617188 5.660156 6.492188 5.691406 6.417969 5.734375 Z M 7.167969 6.867188 L 7.621094 7.542969 L 7.390625 7.71875 C 6.941406 8.054688 6.894531 8.242188 7.15625 8.707031 C 7.382812 9.105469 7.679688 9.46875 8.195312 9.96875 C 8.664062 10.421875 8.964844 10.652344 9.335938 10.84375 C 9.738281 11.054688 9.929688 11 10.246094 10.574219 L 10.421875 10.34375 L 11.097656 10.796875 C 11.472656 11.046875 11.777344 11.261719 11.777344 11.269531 C 11.777344 11.332031 11.410156 11.890625 11.335938 11.949219 C 11.210938 12.042969 10.886719 12.109375 10.640625 12.078125 C 9.792969 11.992188 8.855469 11.441406 7.789062 10.40625 C 6.625 9.269531 5.976562 8.230469 5.886719 7.328125 C 5.855469 7.066406 5.921875 6.742188 6.023438 6.625 C 6.09375 6.542969 6.625 6.195312 6.6875 6.1875 C 6.699219 6.1875 6.917969 6.492188 7.167969 6.867188 Z M 7.167969 6.867188 "/>
            <path style=" stroke:none;fill-rule:nonzero;fill:rgb(0%,0%,0%);fill-opacity:1;" d="M 8.648438 6.996094 C 8.570312 7.074219 8.558594 7.207031 8.613281 7.3125 C 8.65625 7.390625 8.828125 7.453125 9.007812 7.453125 C 9.164062 7.453125 9.527344 7.570312 9.703125 7.675781 C 9.890625 7.789062 10.144531 8.035156 10.261719 8.21875 C 10.390625 8.425781 10.511719 8.777344 10.511719 8.957031 C 10.511719 9.242188 10.613281 9.386719 10.808594 9.386719 C 10.964844 9.386719 11.039062 9.273438 11.039062 9.035156 C 11.039062 8.730469 10.980469 8.492188 10.820312 8.15625 C 10.703125 7.917969 10.621094 7.800781 10.390625 7.574219 C 9.96875 7.148438 9.46875 6.925781 8.929688 6.925781 C 8.765625 6.925781 8.703125 6.941406 8.648438 6.996094 Z M 8.648438 6.996094 "/>
        </g>
    </symbol>

    
</svg>