<?xml version="1.0" standalone="no"?>
<!DOCTYPE svg PUBLIC "-//W3C//DTD SVG 20010904//EN"
 "http://www.w3.org/TR/2001/REC-SVG-20010904/DTD/svg10.dtd">
<svg version="1.0" xmlns="http://www.w3.org/2000/svg"
 width="512.000000pt" height="512.000000pt" viewBox="0 0 512.000000 512.000000"
 preserveAspectRatio="xMidYMid meet">

<g transform="translate(0.000000,512.000000) scale(0.100000,-0.100000)"
fill="#000000" stroke="none">
<path d="M4845 5115 c-5 -2 -1045 -342 -2309 -755 -1264 -413 -2321 -763
-2349 -777 -174 -95 -238 -338 -135 -513 12 -19 195 -210 409 -425 288 -291
393 -403 412 -440 33 -67 50 -153 41 -212 -4 -27 -92 -308 -195 -625 -104
-318 -189 -592 -189 -609 0 -129 125 -243 248 -227 20 3 237 71 482 151 781
256 744 246 837 227 117 -25 134 -38 548 -449 215 -214 406 -397 425 -409 175
-103 418 -39 513 135 31 58 1527 4629 1534 4688 15 127 -97 247 -227 244 -19
0 -39 -2 -45 -4z m100 -170 c14 -13 25 -33 25 -43 0 -36 -1502 -4617 -1526
-4654 -31 -48 -103 -90 -165 -96 -105 -10 -93 -20 -682 567 -357 356 -544 550
-557 577 -25 51 -26 135 -1 189 11 24 410 476 999 1129 540 599 989 1105 998
1124 42 89 25 182 -46 252 -70 71 -163 88 -252 46 -30 -15 -976 -855 -1020
-908 -41 -47 -8 -118 56 -118 30 0 83 45 527 445 272 245 504 448 517 451 53
14 105 -41 86 -92 -5 -14 -412 -472 -904 -1018 l-895 -994 -21 59 c-23 62 -30
75 -78 127 -45 49 -82 73 -147 96 l-57 21 409 368 c262 236 411 377 415 393
13 50 -49 104 -96 85 -14 -5 -245 -209 -515 -452 -282 -254 -507 -450 -530
-460 -54 -25 -138 -24 -189 1 -27 13 -222 200 -573 552 -565 566 -572 575
-573 668 0 60 39 140 83 174 38 29 49 33 1832 615 506 165 1345 439 1865 610
520 170 955 310 968 310 13 1 34 -10 47 -24z m-3708 -3043 c51 -24 70 -27 158
-27 95 1 105 3 204 44 90 37 111 43 153 38 26 -3 55 -10 63 -14 11 -7 -125
-148 -555 -578 l-570 -570 19 60 c218 661 342 1053 351 1108 l12 68 54 -51
c30 -28 80 -63 111 -78z m720 -150 c5 -42 -1 -63 -38 -153 -41 -99 -43 -109
-44 -204 0 -88 3 -107 27 -158 15 -31 50 -81 78 -111 l51 -54 -68 -12 c-55 -9
-447 -133 -1108 -351 l-60 -19 570 570 c430 430 571 566 578 555 4 -8 11 -37
14 -63z"/>
</g>
</svg>
